<svg xmlns="http://www.w3.org/2000/svg" xmlns:xlink="http://www.w3.org/1999/xlink" width="1000" zoomAndPan="magnify" viewBox="0 0 750 374.999991" height="500" preserveAspectRatio="xMidYMid meet" version="1.0"><defs><g/></defs><g fill="#004aad" fill-opacity="1"><g transform="translate(272.101632, 164.778584)"><g><path d="M 4.214844 0 L 25.195312 0 C 26.375 0 27.386719 -0.925781 27.386719 -2.105469 L 27.386719 -19.464844 C 27.386719 -20.644531 28.316406 -21.574219 29.496094 -21.574219 C 30.675781 -21.574219 31.601562 -20.644531 31.601562 -19.464844 L 31.601562 -2.105469 C 31.601562 -0.925781 32.527344 0 33.707031 0 L 54.691406 0 C 55.871094 0 56.882812 -0.925781 56.882812 -2.105469 L 56.882812 -10.535156 C 56.882812 -11.628906 56.796875 -12.21875 56.546875 -13.144531 L 50.816406 -32.359375 C 50.476562 -33.539062 50.5625 -34.128906 50.816406 -35.054688 L 56.546875 -54.269531 C 56.796875 -55.195312 56.882812 -55.957031 56.882812 -56.882812 L 56.882812 -65.308594 C 56.882812 -66.488281 55.871094 -67.414062 54.691406 -67.414062 L 33.707031 -67.414062 C 32.527344 -67.414062 31.601562 -66.488281 31.601562 -65.308594 L 31.601562 -47.949219 C 31.601562 -46.769531 30.675781 -45.84375 29.496094 -45.84375 C 28.316406 -45.84375 27.386719 -46.769531 27.386719 -47.949219 L 27.386719 -65.308594 C 27.386719 -66.488281 26.375 -67.414062 25.195312 -67.414062 L 4.214844 -67.414062 C 3.035156 -67.414062 2.105469 -66.488281 2.105469 -65.308594 L 2.105469 -2.105469 C 2.105469 -0.925781 3.035156 0 4.214844 0 Z M 4.214844 0 "/></g></g></g><g fill="#004aad" fill-opacity="1"><g transform="translate(341.202924, 164.778584)"><g><path d="M 4.214844 0 L 55.957031 0 C 63.875 0 69.691406 -5.816406 69.691406 -13.734375 L 69.691406 -23.003906 C 69.691406 -27.976562 66.066406 -31.601562 61.097656 -31.601562 L 60.335938 -31.601562 C 59.15625 -31.601562 58.230469 -32.527344 58.230469 -33.707031 C 58.230469 -34.886719 59.15625 -35.816406 60.335938 -35.816406 L 61.097656 -35.816406 C 66.066406 -35.816406 69.691406 -39.4375 69.691406 -44.410156 L 69.691406 -53.679688 C 69.691406 -61.601562 63.875 -67.414062 55.957031 -67.414062 L 4.214844 -67.414062 C 3.035156 -67.414062 2.105469 -66.488281 2.105469 -65.308594 L 2.105469 -2.105469 C 2.105469 -0.925781 3.035156 0 4.214844 0 Z M 29.496094 -43.398438 C 28.316406 -43.398438 27.386719 -44.324219 27.386719 -45.503906 C 27.386719 -46.6875 28.316406 -47.613281 29.496094 -47.613281 L 42.136719 -47.613281 C 43.316406 -47.613281 44.242188 -46.6875 44.242188 -45.503906 C 44.242188 -44.324219 43.316406 -43.398438 42.136719 -43.398438 Z M 29.496094 -19.804688 C 28.316406 -19.804688 27.386719 -20.730469 27.386719 -21.910156 C 27.386719 -23.089844 28.316406 -24.015625 29.496094 -24.015625 L 42.136719 -24.015625 C 43.316406 -24.015625 44.242188 -23.089844 44.242188 -21.910156 C 44.242188 -20.730469 43.316406 -19.804688 42.136719 -19.804688 Z M 29.496094 -19.804688 "/></g></g></g><g fill="#004aad" fill-opacity="1"><g transform="translate(423.113176, 164.778584)"><g><path d="M 4.214844 0 L 50.5625 0 C 51.742188 0 52.667969 -0.925781 52.667969 -2.105469 L 52.667969 -20.644531 C 52.667969 -21.824219 51.742188 -22.753906 50.5625 -22.753906 L 29.578125 -22.753906 C 28.398438 -22.753906 27.386719 -23.679688 27.386719 -24.859375 L 27.386719 -65.226562 C 27.386719 -66.40625 26.460938 -67.414062 25.28125 -67.414062 L 4.296875 -67.414062 C 3.117188 -67.414062 2.105469 -66.488281 2.105469 -65.308594 L 2.105469 -2.105469 C 2.105469 -0.925781 3.035156 0 4.214844 0 Z M 4.214844 0 "/></g></g></g><g fill="#ece9d6" fill-opacity="1"><g transform="translate(315.621916, 210.95584)"><g><path d="M 14.6875 -11.140625 L 14.59375 -10.5 C 14.613281 -10.394531 14.679688 -10.296875 14.796875 -10.203125 C 14.921875 -10.117188 15.054688 -10.082031 15.203125 -10.09375 C 15.359375 -10.113281 15.476562 -10.207031 15.5625 -10.375 C 18.0625 -14.59375 20.109375 -18.289062 21.703125 -21.46875 C 23.296875 -24.644531 24.457031 -26.976562 25.1875 -28.46875 C 25.925781 -29.96875 26.523438 -31.164062 26.984375 -32.0625 C 28.140625 -34.375 29.320312 -36.460938 30.53125 -38.328125 C 25.363281 -36.398438 21.273438 -35.269531 18.265625 -34.9375 C 15.265625 -34.601562 13.082031 -34.550781 11.71875 -34.78125 C 10.363281 -35.019531 9.453125 -35.359375 8.984375 -35.796875 C 8.523438 -36.234375 8.265625 -36.703125 8.203125 -37.203125 C 8.148438 -37.703125 8.113281 -38.1875 8.09375 -38.65625 C 8.0625 -39.644531 8.566406 -40.519531 9.609375 -41.28125 C 10.660156 -42.039062 11.546875 -42.457031 12.265625 -42.53125 C 12.992188 -42.613281 13.367188 -42.546875 13.390625 -42.328125 C 13.421875 -42.109375 13.289062 -41.796875 13 -41.390625 C 12.71875 -40.992188 12.585938 -40.734375 12.609375 -40.609375 C 12.679688 -39.972656 14.988281 -39.910156 19.53125 -40.421875 C 24.070312 -40.929688 29.222656 -42.113281 34.984375 -43.96875 C 38.054688 -47.113281 40.828125 -48.820312 43.296875 -49.09375 C 44.921875 -49.28125 46.050781 -48.929688 46.6875 -48.046875 C 47.101562 -47.535156 47.34375 -47.003906 47.40625 -46.453125 C 47.46875 -45.910156 47.207031 -45.328125 46.625 -44.703125 C 46.050781 -44.078125 45.25 -43.507812 44.21875 -43 C 42.320312 -42.070312 40.054688 -41.253906 37.421875 -40.546875 C 36.460938 -38.984375 35.125 -36.570312 33.40625 -33.3125 C 31.695312 -30.050781 30.523438 -27.847656 29.890625 -26.703125 C 29.265625 -25.554688 28.269531 -23.535156 26.90625 -20.640625 C 25.550781 -17.742188 24.375 -15.238281 23.375 -13.125 C 22.382812 -11.007812 21.3125 -8.910156 20.15625 -6.828125 C 17.769531 -2.546875 15.476562 -0.28125 13.28125 -0.03125 C 12.351562 0.0703125 11.53125 -0.0820312 10.8125 -0.5 C 10.09375 -0.914062 9.671875 -1.679688 9.546875 -2.796875 C 9.421875 -3.910156 9.878906 -5.363281 10.921875 -7.15625 C 11.960938 -8.957031 12.742188 -10.125 13.265625 -10.65625 C 13.785156 -11.1875 14.144531 -11.460938 14.34375 -11.484375 C 14.539062 -11.515625 14.65625 -11.398438 14.6875 -11.140625 Z M 14.6875 -11.140625 "/></g></g></g><g fill="#ece9d6" fill-opacity="1"><g transform="translate(349.873546, 207.123018)"><g><path d="M 9.671875 -17.359375 C 13.722656 -23.148438 17.382812 -26.226562 20.65625 -26.59375 C 21.457031 -26.6875 22.144531 -26.519531 22.71875 -26.09375 C 23.300781 -25.675781 23.632812 -25.082031 23.71875 -24.3125 C 23.800781 -23.539062 23.398438 -22.195312 22.515625 -20.28125 C 21.628906 -18.363281 20.785156 -16.734375 19.984375 -15.390625 C 19.578125 -14.691406 19.0625 -14.304688 18.4375 -14.234375 C 17.8125 -14.171875 17.300781 -14.347656 16.90625 -14.765625 C 16.519531 -15.191406 16.296875 -15.703125 16.234375 -16.296875 C 16.078125 -17.660156 16.628906 -19.273438 17.890625 -21.140625 L 17.8125 -21.203125 C 17.175781 -21.066406 15.710938 -19.601562 13.421875 -16.8125 C 11.128906 -14.03125 9.195312 -11.550781 7.625 -9.375 C 6.050781 -7.195312 4.367188 -4.578125 2.578125 -1.515625 C 2.054688 -0.597656 1.582031 -0.113281 1.15625 -0.0625 C 0.738281 -0.0195312 0.171875 -0.09375 -0.546875 -0.28125 C -1.273438 -0.46875 -1.71875 -0.613281 -1.875 -0.71875 C -2.039062 -0.820312 -2.140625 -1.007812 -2.171875 -1.28125 C -2.203125 -1.550781 -2.160156 -1.878906 -2.046875 -2.265625 C -1.929688 -2.648438 -1.695312 -3.195312 -1.34375 -3.90625 C -1 -4.625 -0.484375 -5.773438 0.203125 -7.359375 C 0.890625 -8.953125 1.96875 -11.363281 3.4375 -14.59375 C 4.914062 -17.832031 5.796875 -19.785156 6.078125 -20.453125 C 6.671875 -21.828125 7.175781 -22.835938 7.59375 -23.484375 C 8.34375 -24.703125 9.773438 -25.425781 11.890625 -25.65625 C 12.359375 -25.707031 12.625 -25.441406 12.6875 -24.859375 C 12.789062 -23.929688 12.132812 -22.097656 10.71875 -19.359375 Z M 9.671875 -17.359375 "/></g></g></g><g fill="#ece9d6" fill-opacity="1"><g transform="translate(370.967358, 204.762581)"><g><path d="M 21.8125 -25.140625 C 23.3125 -25.304688 24.117188 -24.878906 24.234375 -23.859375 C 24.296875 -23.304688 24.210938 -22.890625 23.984375 -22.609375 C 23.765625 -22.328125 23.316406 -21.414062 22.640625 -19.875 C 21.972656 -18.332031 21.253906 -16.378906 20.484375 -14.015625 C 19.722656 -11.648438 19.285156 -9.65625 19.171875 -8.03125 C 19.140625 -7.820312 19.140625 -7.539062 19.171875 -7.1875 C 19.296875 -6.113281 19.648438 -5.609375 20.234375 -5.671875 C 20.828125 -5.742188 21.492188 -6.101562 22.234375 -6.75 C 22.984375 -7.394531 23.632812 -8.070312 24.1875 -8.78125 C 24.75 -9.488281 25.289062 -10.210938 25.8125 -10.953125 C 26.34375 -11.691406 26.660156 -12.113281 26.765625 -12.21875 C 26.878906 -12.332031 27.054688 -12.40625 27.296875 -12.4375 C 27.660156 -12.476562 27.910156 -12.21875 28.046875 -11.65625 C 28.191406 -11.09375 28.296875 -10.507812 28.359375 -9.90625 C 28.429688 -9.300781 28.425781 -8.867188 28.34375 -8.609375 C 27.90625 -7.421875 26.800781 -5.929688 25.03125 -4.140625 C 23.257812 -2.347656 21.582031 -1.363281 20 -1.1875 C 18.425781 -1.019531 17.210938 -1.375 16.359375 -2.25 C 15.503906 -3.125 15.007812 -4.144531 14.875 -5.3125 C 14.75 -6.488281 14.832031 -7.539062 15.125 -8.46875 C 13.726562 -6.164062 12.054688 -4.15625 10.109375 -2.4375 C 8.160156 -0.726562 6.519531 0.195312 5.1875 0.34375 C 3.851562 0.5 2.710938 0.21875 1.765625 -0.5 C 0.566406 -1.375 -0.128906 -2.703125 -0.328125 -4.484375 C -0.523438 -6.265625 -0.328125 -8.097656 0.265625 -9.984375 C 0.859375 -11.867188 1.71875 -13.625 2.84375 -15.25 C 3.976562 -16.882812 5.253906 -18.398438 6.671875 -19.796875 C 9.671875 -22.722656 12.546875 -24.34375 15.296875 -24.65625 C 16.347656 -24.769531 17.222656 -24.6875 17.921875 -24.40625 C 18.628906 -24.125 19.101562 -23.726562 19.34375 -23.21875 C 19.738281 -23.976562 20.085938 -24.46875 20.390625 -24.6875 C 20.703125 -24.914062 21.175781 -25.066406 21.8125 -25.140625 Z M 18.28125 -21.421875 C 14.914062 -21.046875 11.640625 -18.789062 8.453125 -14.65625 C 7.328125 -13.175781 6.332031 -11.441406 5.46875 -9.453125 C 4.613281 -7.472656 4.222656 -6.132812 4.296875 -5.4375 C 4.367188 -4.75 4.601562 -4.425781 5 -4.46875 C 5.539062 -4.53125 6.945312 -5.789062 9.21875 -8.25 C 11.5 -10.707031 13 -12.492188 13.71875 -13.609375 C 14.476562 -14.847656 16 -17.453125 18.28125 -21.421875 Z M 18.28125 -21.421875 "/></g></g></g><g fill="#ece9d6" fill-opacity="1"><g transform="translate(395.571888, 202.009288)"><g><path d="M 16.71875 -6.46875 C 16.820312 -5.601562 17.460938 -5.238281 18.640625 -5.375 C 19.265625 -5.445312 20.019531 -5.847656 20.90625 -6.578125 C 21.789062 -7.316406 22.570312 -8.101562 23.25 -8.9375 C 25.0625 -11.175781 26.109375 -12.316406 26.390625 -12.359375 C 26.898438 -12.410156 27.238281 -11.695312 27.40625 -10.21875 C 27.570312 -8.75 27.222656 -7.6875 26.359375 -7.03125 C 23.828125 -4.1875 21.828125 -2.398438 20.359375 -1.671875 C 19.523438 -1.285156 18.585938 -1.039062 17.546875 -0.9375 C 16.503906 -0.84375 15.421875 -1.179688 14.296875 -1.953125 C 13.179688 -2.722656 12.550781 -3.742188 12.40625 -5.015625 C 12.269531 -6.285156 12.441406 -7.765625 12.921875 -9.453125 C 13.410156 -11.140625 13.9375 -12.59375 14.5 -13.8125 C 15.070312 -15.039062 15.785156 -16.476562 16.640625 -18.125 C 17.492188 -19.769531 17.929688 -20.78125 17.953125 -21.15625 L 17.875 -21.203125 C 17.226562 -21.066406 15.757812 -19.601562 13.46875 -16.8125 C 11.1875 -14.03125 9.3125 -11.625 7.84375 -9.59375 C 6.382812 -7.5625 4.664062 -4.875 2.6875 -1.53125 C 2.132812 -0.601562 1.648438 -0.113281 1.234375 -0.0625 C 0.828125 -0.0195312 0.265625 -0.09375 -0.453125 -0.28125 C -1.179688 -0.46875 -1.628906 -0.613281 -1.796875 -0.71875 C -1.972656 -0.820312 -2.070312 -0.988281 -2.09375 -1.21875 C -2.125 -1.457031 -2.085938 -1.753906 -1.984375 -2.109375 C -1.890625 -2.472656 -1.789062 -2.773438 -1.6875 -3.015625 C -1.59375 -3.265625 -1.421875 -3.640625 -1.171875 -4.140625 C -0.929688 -4.640625 -0.460938 -5.703125 0.234375 -7.328125 C 0.941406 -8.953125 2.03125 -11.378906 3.5 -14.609375 C 4.976562 -17.847656 5.859375 -19.800781 6.140625 -20.46875 C 6.734375 -21.84375 7.238281 -22.851562 7.65625 -23.5 C 8.40625 -24.707031 9.832031 -25.429688 11.9375 -25.671875 C 12.414062 -25.722656 12.6875 -25.457031 12.75 -24.875 C 12.851562 -23.945312 12.195312 -22.113281 10.78125 -19.375 L 9.734375 -17.375 C 12.710938 -21.519531 15.320312 -24.226562 17.5625 -25.5 C 18.632812 -26.125 19.628906 -26.484375 20.546875 -26.578125 C 21.460938 -26.679688 22.21875 -26.519531 22.8125 -26.09375 C 23.414062 -25.664062 23.75 -25.148438 23.8125 -24.546875 C 23.882812 -23.953125 23.757812 -23.210938 23.4375 -22.328125 C 23.113281 -21.441406 22.78125 -20.644531 22.4375 -19.9375 C 22.09375 -19.238281 21.628906 -18.347656 21.046875 -17.265625 C 20.460938 -16.179688 20.144531 -15.59375 20.09375 -15.5 C 20.039062 -15.40625 19.914062 -15.148438 19.71875 -14.734375 C 19.519531 -14.328125 19.367188 -14.023438 19.265625 -13.828125 C 19.171875 -13.640625 19.007812 -13.304688 18.78125 -12.828125 C 18.5625 -12.359375 18.378906 -11.960938 18.234375 -11.640625 C 18.097656 -11.328125 17.929688 -10.941406 17.734375 -10.484375 C 17.546875 -10.035156 17.394531 -9.644531 17.28125 -9.3125 C 17.164062 -8.976562 17.050781 -8.613281 16.9375 -8.21875 C 16.75 -7.5 16.675781 -6.914062 16.71875 -6.46875 Z M 16.71875 -6.46875 "/></g></g></g><g fill="#ece9d6" fill-opacity="1"><g transform="translate(419.173355, 199.368239)"><g><path d="M 4.421875 -6.46875 L 4.4375 -6 C 4.488281 -5.5 4.722656 -5.09375 5.140625 -4.78125 C 5.554688 -4.476562 5.914062 -4.34375 6.21875 -4.375 C 8.582031 -4.644531 10.632812 -5.234375 12.375 -6.140625 C 14.125 -7.046875 14.957031 -7.851562 14.875 -8.5625 C 14.84375 -8.894531 14.484375 -9.148438 13.796875 -9.328125 C 13.109375 -9.503906 11.957031 -9.679688 10.34375 -9.859375 C 8.738281 -10.046875 7.570312 -10.203125 6.84375 -10.328125 C 6.113281 -10.460938 5.53125 -10.59375 5.09375 -10.71875 C 4.664062 -10.851562 4.21875 -11.050781 3.75 -11.3125 C 2.757812 -11.863281 2.191406 -12.785156 2.046875 -14.078125 C 1.898438 -15.367188 2.226562 -16.695312 3.03125 -18.0625 C 3.84375 -19.4375 4.921875 -20.65625 6.265625 -21.71875 C 7.609375 -22.789062 9.0625 -23.765625 10.625 -24.640625 C 13.75 -26.367188 16.414062 -27.359375 18.625 -27.609375 C 20.8125 -27.847656 22.21875 -27.519531 22.84375 -26.625 C 23.03125 -26.3125 23.148438 -25.945312 23.203125 -25.53125 L 23.21875 -25.328125 C 23.332031 -24.285156 23.195312 -23.441406 22.8125 -22.796875 C 22.4375 -22.160156 21.796875 -21.550781 20.890625 -20.96875 C 19.992188 -20.394531 19.265625 -20.078125 18.703125 -20.015625 C 18.148438 -19.953125 17.796875 -19.953125 17.640625 -20.015625 C 17.484375 -20.078125 17.347656 -20.164062 17.234375 -20.28125 C 17.117188 -20.40625 16.988281 -20.488281 16.84375 -20.53125 C 16.695312 -20.570312 16.609375 -20.707031 16.578125 -20.9375 C 16.546875 -21.175781 16.613281 -21.425781 16.78125 -21.6875 C 16.945312 -21.957031 17.050781 -22.238281 17.09375 -22.53125 C 15.8125 -22.320312 14.488281 -21.867188 13.125 -21.171875 C 11.769531 -20.472656 10.625 -19.734375 9.6875 -18.953125 C 8.757812 -18.171875 7.992188 -17.4375 7.390625 -16.75 C 6.785156 -16.0625 6.5 -15.570312 6.53125 -15.28125 C 6.5625 -15 7.039062 -14.828125 7.96875 -14.765625 C 12.132812 -14.410156 14.882812 -14.007812 16.21875 -13.5625 C 17.5625 -13.113281 18.519531 -12.539062 19.09375 -11.84375 C 19.675781 -11.15625 20.003906 -10.503906 20.078125 -9.890625 C 20.210938 -8.640625 19.84375 -7.394531 18.96875 -6.15625 C 18.09375 -4.914062 16.957031 -3.863281 15.5625 -3 C 12.570312 -1.082031 9.898438 0.00390625 7.546875 0.265625 C 5.191406 0.523438 3.523438 0.347656 2.546875 -0.265625 C 1.578125 -0.890625 1.035156 -1.691406 0.921875 -2.671875 C 0.816406 -3.648438 0.96875 -4.582031 1.375 -5.46875 C 1.78125 -6.363281 2.375 -6.851562 3.15625 -6.9375 C 3.945312 -7.03125 4.367188 -6.875 4.421875 -6.46875 Z M 4.421875 -6.46875 "/></g></g></g><g fill="#004aad" fill-opacity="1"><g transform="translate(314.404881, 215.034388)"><g><path d="M 14.6875 -11.140625 L 14.59375 -10.5 C 14.613281 -10.394531 14.679688 -10.296875 14.796875 -10.203125 C 14.921875 -10.117188 15.054688 -10.082031 15.203125 -10.09375 C 15.359375 -10.113281 15.476562 -10.207031 15.5625 -10.375 C 18.0625 -14.59375 20.109375 -18.289062 21.703125 -21.46875 C 23.296875 -24.644531 24.457031 -26.976562 25.1875 -28.46875 C 25.925781 -29.96875 26.523438 -31.164062 26.984375 -32.0625 C 28.140625 -34.375 29.320312 -36.460938 30.53125 -38.328125 C 25.363281 -36.398438 21.273438 -35.269531 18.265625 -34.9375 C 15.265625 -34.601562 13.082031 -34.550781 11.71875 -34.78125 C 10.363281 -35.019531 9.453125 -35.359375 8.984375 -35.796875 C 8.523438 -36.234375 8.265625 -36.703125 8.203125 -37.203125 C 8.148438 -37.703125 8.113281 -38.1875 8.09375 -38.65625 C 8.0625 -39.644531 8.566406 -40.519531 9.609375 -41.28125 C 10.660156 -42.039062 11.546875 -42.457031 12.265625 -42.53125 C 12.992188 -42.613281 13.367188 -42.546875 13.390625 -42.328125 C 13.421875 -42.109375 13.289062 -41.796875 13 -41.390625 C 12.71875 -40.992188 12.585938 -40.734375 12.609375 -40.609375 C 12.679688 -39.972656 14.988281 -39.910156 19.53125 -40.421875 C 24.070312 -40.929688 29.222656 -42.113281 34.984375 -43.96875 C 38.054688 -47.113281 40.828125 -48.820312 43.296875 -49.09375 C 44.921875 -49.28125 46.050781 -48.929688 46.6875 -48.046875 C 47.101562 -47.535156 47.34375 -47.003906 47.40625 -46.453125 C 47.46875 -45.910156 47.207031 -45.328125 46.625 -44.703125 C 46.050781 -44.078125 45.25 -43.507812 44.21875 -43 C 42.320312 -42.070312 40.054688 -41.253906 37.421875 -40.546875 C 36.460938 -38.984375 35.125 -36.570312 33.40625 -33.3125 C 31.695312 -30.050781 30.523438 -27.847656 29.890625 -26.703125 C 29.265625 -25.554688 28.269531 -23.535156 26.90625 -20.640625 C 25.550781 -17.742188 24.375 -15.238281 23.375 -13.125 C 22.382812 -11.007812 21.3125 -8.910156 20.15625 -6.828125 C 17.769531 -2.546875 15.476562 -0.28125 13.28125 -0.03125 C 12.351562 0.0703125 11.53125 -0.0820312 10.8125 -0.5 C 10.09375 -0.914062 9.671875 -1.679688 9.546875 -2.796875 C 9.421875 -3.910156 9.878906 -5.363281 10.921875 -7.15625 C 11.960938 -8.957031 12.742188 -10.125 13.265625 -10.65625 C 13.785156 -11.1875 14.144531 -11.460938 14.34375 -11.484375 C 14.539062 -11.515625 14.65625 -11.398438 14.6875 -11.140625 Z M 14.6875 -11.140625 "/></g></g></g><g fill="#004aad" fill-opacity="1"><g transform="translate(348.656511, 211.201566)"><g><path d="M 9.671875 -17.359375 C 13.722656 -23.148438 17.382812 -26.226562 20.65625 -26.59375 C 21.457031 -26.6875 22.144531 -26.519531 22.71875 -26.09375 C 23.300781 -25.675781 23.632812 -25.082031 23.71875 -24.3125 C 23.800781 -23.539062 23.398438 -22.195312 22.515625 -20.28125 C 21.628906 -18.363281 20.785156 -16.734375 19.984375 -15.390625 C 19.578125 -14.691406 19.0625 -14.304688 18.4375 -14.234375 C 17.8125 -14.171875 17.300781 -14.347656 16.90625 -14.765625 C 16.519531 -15.191406 16.296875 -15.703125 16.234375 -16.296875 C 16.078125 -17.660156 16.628906 -19.273438 17.890625 -21.140625 L 17.8125 -21.203125 C 17.175781 -21.066406 15.710938 -19.601562 13.421875 -16.8125 C 11.128906 -14.03125 9.195312 -11.550781 7.625 -9.375 C 6.050781 -7.195312 4.367188 -4.578125 2.578125 -1.515625 C 2.054688 -0.597656 1.582031 -0.113281 1.15625 -0.0625 C 0.738281 -0.0195312 0.171875 -0.09375 -0.546875 -0.28125 C -1.273438 -0.46875 -1.71875 -0.613281 -1.875 -0.71875 C -2.039062 -0.820312 -2.140625 -1.007812 -2.171875 -1.28125 C -2.203125 -1.550781 -2.160156 -1.878906 -2.046875 -2.265625 C -1.929688 -2.648438 -1.695312 -3.195312 -1.34375 -3.90625 C -1 -4.625 -0.484375 -5.773438 0.203125 -7.359375 C 0.890625 -8.953125 1.96875 -11.363281 3.4375 -14.59375 C 4.914062 -17.832031 5.796875 -19.785156 6.078125 -20.453125 C 6.671875 -21.828125 7.175781 -22.835938 7.59375 -23.484375 C 8.34375 -24.703125 9.773438 -25.425781 11.890625 -25.65625 C 12.359375 -25.707031 12.625 -25.441406 12.6875 -24.859375 C 12.789062 -23.929688 12.132812 -22.097656 10.71875 -19.359375 Z M 9.671875 -17.359375 "/></g></g></g><g fill="#004aad" fill-opacity="1"><g transform="translate(369.750323, 208.841129)"><g><path d="M 21.8125 -25.140625 C 23.3125 -25.304688 24.117188 -24.878906 24.234375 -23.859375 C 24.296875 -23.304688 24.210938 -22.890625 23.984375 -22.609375 C 23.765625 -22.328125 23.316406 -21.414062 22.640625 -19.875 C 21.972656 -18.332031 21.253906 -16.378906 20.484375 -14.015625 C 19.722656 -11.648438 19.285156 -9.65625 19.171875 -8.03125 C 19.140625 -7.820312 19.140625 -7.539062 19.171875 -7.1875 C 19.296875 -6.113281 19.648438 -5.609375 20.234375 -5.671875 C 20.828125 -5.742188 21.492188 -6.101562 22.234375 -6.75 C 22.984375 -7.394531 23.632812 -8.070312 24.1875 -8.78125 C 24.75 -9.488281 25.289062 -10.210938 25.8125 -10.953125 C 26.34375 -11.691406 26.660156 -12.113281 26.765625 -12.21875 C 26.878906 -12.332031 27.054688 -12.40625 27.296875 -12.4375 C 27.660156 -12.476562 27.910156 -12.21875 28.046875 -11.65625 C 28.191406 -11.09375 28.296875 -10.507812 28.359375 -9.90625 C 28.429688 -9.300781 28.425781 -8.867188 28.34375 -8.609375 C 27.90625 -7.421875 26.800781 -5.929688 25.03125 -4.140625 C 23.257812 -2.347656 21.582031 -1.363281 20 -1.1875 C 18.425781 -1.019531 17.210938 -1.375 16.359375 -2.25 C 15.503906 -3.125 15.007812 -4.144531 14.875 -5.3125 C 14.75 -6.488281 14.832031 -7.539062 15.125 -8.46875 C 13.726562 -6.164062 12.054688 -4.15625 10.109375 -2.4375 C 8.160156 -0.726562 6.519531 0.195312 5.1875 0.34375 C 3.851562 0.5 2.710938 0.21875 1.765625 -0.5 C 0.566406 -1.375 -0.128906 -2.703125 -0.328125 -4.484375 C -0.523438 -6.265625 -0.328125 -8.097656 0.265625 -9.984375 C 0.859375 -11.867188 1.71875 -13.625 2.84375 -15.25 C 3.976562 -16.882812 5.253906 -18.398438 6.671875 -19.796875 C 9.671875 -22.722656 12.546875 -24.34375 15.296875 -24.65625 C 16.347656 -24.769531 17.222656 -24.6875 17.921875 -24.40625 C 18.628906 -24.125 19.101562 -23.726562 19.34375 -23.21875 C 19.738281 -23.976562 20.085938 -24.46875 20.390625 -24.6875 C 20.703125 -24.914062 21.175781 -25.066406 21.8125 -25.140625 Z M 18.28125 -21.421875 C 14.914062 -21.046875 11.640625 -18.789062 8.453125 -14.65625 C 7.328125 -13.175781 6.332031 -11.441406 5.46875 -9.453125 C 4.613281 -7.472656 4.222656 -6.132812 4.296875 -5.4375 C 4.367188 -4.75 4.601562 -4.425781 5 -4.46875 C 5.539062 -4.53125 6.945312 -5.789062 9.21875 -8.25 C 11.5 -10.707031 13 -12.492188 13.71875 -13.609375 C 14.476562 -14.847656 16 -17.453125 18.28125 -21.421875 Z M 18.28125 -21.421875 "/></g></g></g><g fill="#004aad" fill-opacity="1"><g transform="translate(394.354852, 206.087836)"><g><path d="M 16.71875 -6.46875 C 16.820312 -5.601562 17.460938 -5.238281 18.640625 -5.375 C 19.265625 -5.445312 20.019531 -5.847656 20.90625 -6.578125 C 21.789062 -7.316406 22.570312 -8.101562 23.25 -8.9375 C 25.0625 -11.175781 26.109375 -12.316406 26.390625 -12.359375 C 26.898438 -12.410156 27.238281 -11.695312 27.40625 -10.21875 C 27.570312 -8.75 27.222656 -7.6875 26.359375 -7.03125 C 23.828125 -4.1875 21.828125 -2.398438 20.359375 -1.671875 C 19.523438 -1.285156 18.585938 -1.039062 17.546875 -0.9375 C 16.503906 -0.84375 15.421875 -1.179688 14.296875 -1.953125 C 13.179688 -2.722656 12.550781 -3.742188 12.40625 -5.015625 C 12.269531 -6.285156 12.441406 -7.765625 12.921875 -9.453125 C 13.410156 -11.140625 13.9375 -12.59375 14.5 -13.8125 C 15.070312 -15.039062 15.785156 -16.476562 16.640625 -18.125 C 17.492188 -19.769531 17.929688 -20.78125 17.953125 -21.15625 L 17.875 -21.203125 C 17.226562 -21.066406 15.757812 -19.601562 13.46875 -16.8125 C 11.1875 -14.03125 9.3125 -11.625 7.84375 -9.59375 C 6.382812 -7.5625 4.664062 -4.875 2.6875 -1.53125 C 2.132812 -0.601562 1.648438 -0.113281 1.234375 -0.0625 C 0.828125 -0.0195312 0.265625 -0.09375 -0.453125 -0.28125 C -1.179688 -0.46875 -1.628906 -0.613281 -1.796875 -0.71875 C -1.972656 -0.820312 -2.070312 -0.988281 -2.09375 -1.21875 C -2.125 -1.457031 -2.085938 -1.753906 -1.984375 -2.109375 C -1.890625 -2.472656 -1.789062 -2.773438 -1.6875 -3.015625 C -1.59375 -3.265625 -1.421875 -3.640625 -1.171875 -4.140625 C -0.929688 -4.640625 -0.460938 -5.703125 0.234375 -7.328125 C 0.941406 -8.953125 2.03125 -11.378906 3.5 -14.609375 C 4.976562 -17.847656 5.859375 -19.800781 6.140625 -20.46875 C 6.734375 -21.84375 7.238281 -22.851562 7.65625 -23.5 C 8.40625 -24.707031 9.832031 -25.429688 11.9375 -25.671875 C 12.414062 -25.722656 12.6875 -25.457031 12.75 -24.875 C 12.851562 -23.945312 12.195312 -22.113281 10.78125 -19.375 L 9.734375 -17.375 C 12.710938 -21.519531 15.320312 -24.226562 17.5625 -25.5 C 18.632812 -26.125 19.628906 -26.484375 20.546875 -26.578125 C 21.460938 -26.679688 22.21875 -26.519531 22.8125 -26.09375 C 23.414062 -25.664062 23.75 -25.148438 23.8125 -24.546875 C 23.882812 -23.953125 23.757812 -23.210938 23.4375 -22.328125 C 23.113281 -21.441406 22.78125 -20.644531 22.4375 -19.9375 C 22.09375 -19.238281 21.628906 -18.347656 21.046875 -17.265625 C 20.460938 -16.179688 20.144531 -15.59375 20.09375 -15.5 C 20.039062 -15.40625 19.914062 -15.148438 19.71875 -14.734375 C 19.519531 -14.328125 19.367188 -14.023438 19.265625 -13.828125 C 19.171875 -13.640625 19.007812 -13.304688 18.78125 -12.828125 C 18.5625 -12.359375 18.378906 -11.960938 18.234375 -11.640625 C 18.097656 -11.328125 17.929688 -10.941406 17.734375 -10.484375 C 17.546875 -10.035156 17.394531 -9.644531 17.28125 -9.3125 C 17.164062 -8.976562 17.050781 -8.613281 16.9375 -8.21875 C 16.75 -7.5 16.675781 -6.914062 16.71875 -6.46875 Z M 16.71875 -6.46875 "/></g></g></g><g fill="#004aad" fill-opacity="1"><g transform="translate(417.95632, 203.446787)"><g><path d="M 4.421875 -6.46875 L 4.4375 -6 C 4.488281 -5.5 4.722656 -5.09375 5.140625 -4.78125 C 5.554688 -4.476562 5.914062 -4.34375 6.21875 -4.375 C 8.582031 -4.644531 10.632812 -5.234375 12.375 -6.140625 C 14.125 -7.046875 14.957031 -7.851562 14.875 -8.5625 C 14.84375 -8.894531 14.484375 -9.148438 13.796875 -9.328125 C 13.109375 -9.503906 11.957031 -9.679688 10.34375 -9.859375 C 8.738281 -10.046875 7.570312 -10.203125 6.84375 -10.328125 C 6.113281 -10.460938 5.53125 -10.59375 5.09375 -10.71875 C 4.664062 -10.851562 4.21875 -11.050781 3.75 -11.3125 C 2.757812 -11.863281 2.191406 -12.785156 2.046875 -14.078125 C 1.898438 -15.367188 2.226562 -16.695312 3.03125 -18.0625 C 3.84375 -19.4375 4.921875 -20.65625 6.265625 -21.71875 C 7.609375 -22.789062 9.0625 -23.765625 10.625 -24.640625 C 13.75 -26.367188 16.414062 -27.359375 18.625 -27.609375 C 20.8125 -27.847656 22.21875 -27.519531 22.84375 -26.625 C 23.03125 -26.3125 23.148438 -25.945312 23.203125 -25.53125 L 23.21875 -25.328125 C 23.332031 -24.285156 23.195312 -23.441406 22.8125 -22.796875 C 22.4375 -22.160156 21.796875 -21.550781 20.890625 -20.96875 C 19.992188 -20.394531 19.265625 -20.078125 18.703125 -20.015625 C 18.148438 -19.953125 17.796875 -19.953125 17.640625 -20.015625 C 17.484375 -20.078125 17.347656 -20.164062 17.234375 -20.28125 C 17.117188 -20.40625 16.988281 -20.488281 16.84375 -20.53125 C 16.695312 -20.570312 16.609375 -20.707031 16.578125 -20.9375 C 16.546875 -21.175781 16.613281 -21.425781 16.78125 -21.6875 C 16.945312 -21.957031 17.050781 -22.238281 17.09375 -22.53125 C 15.8125 -22.320312 14.488281 -21.867188 13.125 -21.171875 C 11.769531 -20.472656 10.625 -19.734375 9.6875 -18.953125 C 8.757812 -18.171875 7.992188 -17.4375 7.390625 -16.75 C 6.785156 -16.0625 6.5 -15.570312 6.53125 -15.28125 C 6.5625 -15 7.039062 -14.828125 7.96875 -14.765625 C 12.132812 -14.410156 14.882812 -14.007812 16.21875 -13.5625 C 17.5625 -13.113281 18.519531 -12.539062 19.09375 -11.84375 C 19.675781 -11.15625 20.003906 -10.503906 20.078125 -9.890625 C 20.210938 -8.640625 19.84375 -7.394531 18.96875 -6.15625 C 18.09375 -4.914062 16.957031 -3.863281 15.5625 -3 C 12.570312 -1.082031 9.898438 0.00390625 7.546875 0.265625 C 5.191406 0.523438 3.523438 0.347656 2.546875 -0.265625 C 1.578125 -0.890625 1.035156 -1.691406 0.921875 -2.671875 C 0.816406 -3.648438 0.96875 -4.582031 1.375 -5.46875 C 1.78125 -6.363281 2.375 -6.851562 3.15625 -6.9375 C 3.945312 -7.03125 4.367188 -6.875 4.421875 -6.46875 Z M 4.421875 -6.46875 "/></g></g></g><g fill="#004aad" fill-opacity="1"><g transform="translate(196.916305, 243.108265)"><g><path d="M 1.535156 0 L 9.824219 0 L 9.824219 -9.089844 L 15.628906 -0.0625 L 25.023438 -0.0625 L 17.5 -11.023438 L 24.777344 -21.554688 L 15.351562 -21.554688 L 9.855469 -12.957031 L 9.855469 -21.492188 L 1.566406 -21.492188 Z M 1.535156 0 "/></g></g></g><g fill="#004aad" fill-opacity="1"><g transform="translate(222.553369, 243.108265)"><g><path d="M 13.601562 0.460938 C 20.601562 0.460938 25.730469 -4.238281 25.730469 -10.777344 C 25.730469 -17.441406 20.601562 -21.953125 13.632812 -21.953125 C 6.785156 -21.953125 1.535156 -17.410156 1.535156 -10.714844 C 1.535156 -4.144531 6.785156 0.460938 13.601562 0.460938 Z M 9.980469 -10.746094 C 9.980469 -13.082031 11.332031 -15.074219 13.632812 -15.074219 C 15.964844 -15.074219 17.285156 -13.050781 17.285156 -10.714844 C 17.285156 -8.382812 15.875 -6.449219 13.632812 -6.449219 C 11.359375 -6.449219 9.980469 -8.472656 9.980469 -10.746094 Z M 9.980469 -10.746094 "/></g></g></g><g fill="#004aad" fill-opacity="1"><g transform="translate(249.817692, 243.108265)"><g><path d="M 1.535156 0 L 9.824219 0 L 9.824219 -4.574219 L 11.605469 -4.574219 C 14.832031 -4.574219 17.410156 -5.34375 19.28125 -6.878906 C 21.15625 -8.382812 22.078125 -10.46875 22.078125 -13.109375 C 22.078125 -15.691406 21.15625 -17.746094 19.28125 -19.253906 C 17.410156 -20.757812 14.832031 -21.492188 11.605469 -21.492188 L 1.535156 -21.492188 Z M 9.824219 -10.683594 L 9.824219 -15.074219 L 11.359375 -15.074219 C 12.066406 -15.074219 12.652344 -14.859375 13.050781 -14.460938 C 13.449219 -14.03125 13.632812 -13.480469 13.632812 -12.835938 C 13.632812 -12.191406 13.449219 -11.667969 13.050781 -11.269531 C 12.652344 -10.871094 12.066406 -10.683594 11.359375 -10.683594 Z M 9.824219 -10.683594 "/></g></g></g><g fill="#004aad" fill-opacity="1"><g transform="translate(273.428351, 243.108265)"><g><path d="M 1.535156 0 L 20.847656 0 L 20.847656 -6.292969 L 9.609375 -6.292969 L 9.609375 -8.042969 L 18.363281 -8.042969 L 18.363281 -13.632812 L 9.609375 -13.632812 L 9.609375 -15.199219 L 20.574219 -15.199219 L 20.574219 -21.492188 L 1.535156 -21.492188 Z M 1.535156 0 "/></g></g></g><g fill="#004aad" fill-opacity="1"><g transform="translate(295.810887, 243.108265)"><g><path d="M 1.535156 0 L 9.824219 0 L 9.824219 -5.433594 L 9.949219 -5.433594 L 9.855469 -5.402344 L 14.246094 0 L 22.996094 0 L 17.933594 -6.601562 C 19.3125 -7.246094 20.386719 -8.167969 21.125 -9.335938 C 21.863281 -10.46875 22.230469 -11.851562 22.230469 -13.417969 C 22.230469 -15.90625 21.308594 -17.902344 19.46875 -19.34375 C 17.59375 -20.789062 15.074219 -21.492188 11.914062 -21.492188 L 1.535156 -21.492188 Z M 9.824219 -11.300781 L 9.824219 -15.074219 L 11.667969 -15.074219 C 12.34375 -15.074219 12.894531 -14.921875 13.324219 -14.585938 C 13.726562 -14.246094 13.941406 -13.785156 13.941406 -13.265625 C 13.941406 -12.679688 13.726562 -12.191406 13.324219 -11.851562 C 12.894531 -11.484375 12.34375 -11.300781 11.667969 -11.300781 Z M 9.824219 -11.300781 "/></g></g></g><g fill="#004aad" fill-opacity="1"><g transform="translate(320.342636, 243.108265)"><g><path d="M 0.613281 0 L 9.148438 0 L 10.011719 -2.578125 L 17.378906 -2.578125 L 18.207031 0 L 26.898438 0 L 18.515625 -21.492188 L 8.996094 -21.492188 Z M 11.761719 -7.800781 L 13.726562 -13.664062 L 13.785156 -13.664062 L 15.691406 -7.800781 Z M 11.761719 -7.800781 "/></g></g></g><g fill="#004aad" fill-opacity="1"><g transform="translate(347.852583, 243.108265)"><g><path d="M 10.410156 0.550781 C 15.875 0.550781 21.246094 -1.414062 21.246094 -7.03125 C 21.246094 -11.945312 16.671875 -13.171875 12.097656 -13.847656 C 11.332031 -13.972656 9.765625 -14.09375 9.765625 -14.859375 C 9.765625 -15.351562 10.59375 -15.597656 11.453125 -15.597656 C 13.753906 -15.628906 16.242188 -15.351562 19.375 -14.214844 L 19.925781 -20.695312 C 15.199219 -22.660156 4.269531 -23.058594 1.566406 -17.195312 C -0.796875 -11.761719 3.625 -8.8125 9.917969 -7.859375 C 10.839844 -7.707031 12.464844 -7.554688 12.464844 -6.632812 C 12.464844 -4.945312 3.316406 -6.722656 1.78125 -7.460938 L 1.257812 -1.011719 C 4.207031 0.246094 7.277344 0.550781 10.410156 0.550781 Z M 10.410156 0.550781 "/></g></g></g><g fill="#004aad" fill-opacity="1"><g transform="translate(370.0202, 243.108265)"><g><path d="M 1.535156 0 L 9.824219 0 L 9.824219 -21.492188 L 1.535156 -21.492188 Z M 1.535156 0 "/></g></g></g><g fill="#004aad" fill-opacity="1"><g transform="translate(381.380337, 243.108265)"><g/></g></g><g fill="#004aad" fill-opacity="1"><g transform="translate(390.591251, 243.108265)"><g><path d="M 1.535156 0 L 13.972656 0 C 19.496094 0 22.753906 -2.242188 22.753906 -6.050781 C 22.753906 -8.566406 21.371094 -10.316406 18.636719 -11.269531 C 20.847656 -12.25 21.953125 -13.847656 21.953125 -16.027344 C 21.953125 -19.496094 18.914062 -21.492188 13.753906 -21.492188 L 1.535156 -21.492188 Z M 9.519531 -5.648438 L 9.519531 -8.535156 L 12.957031 -8.535156 C 13.941406 -8.535156 14.523438 -8.015625 14.523438 -7.152344 C 14.523438 -6.140625 14 -5.648438 12.925781 -5.648438 Z M 9.519531 -13.109375 L 9.519531 -15.84375 L 12.25 -15.84375 C 13.203125 -15.84375 13.785156 -15.351562 13.785156 -14.460938 C 13.785156 -13.632812 13.203125 -13.109375 12.21875 -13.109375 Z M 9.519531 -13.109375 "/></g></g></g><g fill="#004aad" fill-opacity="1"><g transform="translate(414.877374, 243.108265)"><g><path d="M 1.535156 0 L 9.824219 0 L 9.824219 -21.492188 L 1.535156 -21.492188 Z M 1.535156 0 "/></g></g></g><g fill="#004aad" fill-opacity="1"><g transform="translate(426.237511, 243.108265)"><g><path d="M 1.535156 0 L 9.824219 0 L 9.824219 -9.210938 L 17.101562 0 L 24.410156 0 L 24.410156 -21.492188 L 16.121094 -21.492188 L 16.121094 -12.589844 L 9.058594 -21.492188 L 1.535156 -21.492188 Z M 1.535156 0 "/></g></g></g><g fill="#004aad" fill-opacity="1"><g transform="translate(452.181609, 243.108265)"><g><path d="M 7.0625 0 L 15.351562 0 L 15.351562 -14.738281 L 21.554688 -14.738281 L 21.554688 -21.492188 L 0.921875 -21.492188 L 0.921875 -14.738281 L 7.0625 -14.738281 Z M 7.0625 0 "/></g></g></g><g fill="#004aad" fill-opacity="1"><g transform="translate(474.656248, 243.108265)"><g><path d="M 0.613281 0 L 9.148438 0 L 10.011719 -2.578125 L 17.378906 -2.578125 L 18.207031 0 L 26.898438 0 L 18.515625 -21.492188 L 8.996094 -21.492188 Z M 11.761719 -7.800781 L 13.726562 -13.664062 L 13.785156 -13.664062 L 15.691406 -7.800781 Z M 11.761719 -7.800781 "/></g></g></g><g fill="#004aad" fill-opacity="1"><g transform="translate(502.166195, 243.108265)"><g><path d="M 1.535156 0 L 9.824219 0 L 9.824219 -9.210938 L 17.101562 0 L 24.410156 0 L 24.410156 -21.492188 L 16.121094 -21.492188 L 16.121094 -12.589844 L 9.058594 -21.492188 L 1.535156 -21.492188 Z M 1.535156 0 "/></g></g></g><g fill="#004aad" fill-opacity="1"><g transform="translate(528.11027, 243.108265)"><g><path d="M 13.753906 0.460938 C 17.042969 0.460938 20.601562 -0.523438 23.429688 -2.546875 L 23.429688 -12.25 L 13.664062 -12.25 L 13.664062 -7.398438 L 16.027344 -7.398438 L 16.027344 -6.417969 C 12.835938 -5.679688 9.824219 -7.0625 9.824219 -10.683594 C 9.824219 -13.511719 11.667969 -15.074219 14.277344 -15.074219 C 15.964844 -15.074219 17.625 -14.492188 19.28125 -13.355469 L 22.445312 -19.773438 C 19.898438 -21.21875 17.164062 -21.953125 14.277344 -21.953125 C 7.152344 -21.953125 1.535156 -17.472656 1.535156 -10.714844 C 1.535156 -3.992188 6.9375 0.460938 13.753906 0.460938 Z M 13.753906 0.460938 "/></g></g></g><g fill="#004aad" fill-opacity="1"><g transform="translate(278.736612, 285.858262)"><g><path d="M 1.535156 0 L 19.160156 0 L 19.160156 -6.695312 L 9.734375 -6.695312 L 9.734375 -21.492188 L 1.535156 -21.492188 Z M 1.535156 0 "/></g></g></g><g fill="#004aad" fill-opacity="1"><g transform="translate(299.430481, 285.858262)"><g><path d="M 0.613281 0 L 9.148438 0 L 10.011719 -2.578125 L 17.378906 -2.578125 L 18.207031 0 L 26.898438 0 L 18.515625 -21.492188 L 8.996094 -21.492188 Z M 11.761719 -7.800781 L 13.726562 -13.664062 L 13.785156 -13.664062 L 15.691406 -7.800781 Z M 11.761719 -7.800781 "/></g></g></g><g fill="#004aad" fill-opacity="1"><g transform="translate(326.940428, 285.858262)"><g><path d="M 13.753906 0.460938 C 17.042969 0.460938 20.601562 -0.523438 23.429688 -2.546875 L 23.429688 -12.25 L 13.664062 -12.25 L 13.664062 -7.398438 L 16.027344 -7.398438 L 16.027344 -6.417969 C 12.835938 -5.679688 9.824219 -7.0625 9.824219 -10.683594 C 9.824219 -13.511719 11.667969 -15.074219 14.277344 -15.074219 C 15.964844 -15.074219 17.625 -14.492188 19.28125 -13.355469 L 22.445312 -19.773438 C 19.898438 -21.21875 17.164062 -21.953125 14.277344 -21.953125 C 7.152344 -21.953125 1.535156 -17.472656 1.535156 -10.714844 C 1.535156 -3.992188 6.9375 0.460938 13.753906 0.460938 Z M 13.753906 0.460938 "/></g></g></g><g fill="#004aad" fill-opacity="1"><g transform="translate(351.902016, 285.858262)"><g><path d="M 12.375 0.460938 C 18.882812 0.460938 23.242188 -3.164062 23.242188 -9.457031 L 23.242188 -21.492188 L 15.046875 -21.492188 L 15.046875 -9.242188 C 15.046875 -7.339844 14.277344 -6.078125 12.375 -6.078125 C 10.5625 -6.078125 9.824219 -7.429688 9.824219 -9.242188 L 9.824219 -21.492188 L 1.535156 -21.492188 L 1.535156 -9.457031 C 1.535156 -3.285156 5.804688 0.460938 12.375 0.460938 Z M 12.375 0.460938 "/></g></g></g><g fill="#004aad" fill-opacity="1"><g transform="translate(376.679389, 285.858262)"><g><path d="M 1.535156 0 L 13.972656 0 C 19.496094 0 22.753906 -2.242188 22.753906 -6.050781 C 22.753906 -8.566406 21.371094 -10.316406 18.636719 -11.269531 C 20.847656 -12.25 21.953125 -13.847656 21.953125 -16.027344 C 21.953125 -19.496094 18.914062 -21.492188 13.753906 -21.492188 L 1.535156 -21.492188 Z M 9.519531 -5.648438 L 9.519531 -8.535156 L 12.957031 -8.535156 C 13.941406 -8.535156 14.523438 -8.015625 14.523438 -7.152344 C 14.523438 -6.140625 14 -5.648438 12.925781 -5.648438 Z M 9.519531 -13.109375 L 9.519531 -15.84375 L 12.25 -15.84375 C 13.203125 -15.84375 13.785156 -15.351562 13.785156 -14.460938 C 13.785156 -13.632812 13.203125 -13.109375 12.21875 -13.109375 Z M 9.519531 -13.109375 "/></g></g></g><g fill="#004aad" fill-opacity="1"><g transform="translate(400.965512, 285.858262)"><g><path d="M 13.601562 0.460938 C 20.601562 0.460938 25.730469 -4.238281 25.730469 -10.777344 C 25.730469 -17.441406 20.601562 -21.953125 13.632812 -21.953125 C 6.785156 -21.953125 1.535156 -17.410156 1.535156 -10.714844 C 1.535156 -4.144531 6.785156 0.460938 13.601562 0.460938 Z M 9.980469 -10.746094 C 9.980469 -13.082031 11.332031 -15.074219 13.632812 -15.074219 C 15.964844 -15.074219 17.285156 -13.050781 17.285156 -10.714844 C 17.285156 -8.382812 15.875 -6.449219 13.632812 -6.449219 C 11.359375 -6.449219 9.980469 -8.472656 9.980469 -10.746094 Z M 9.980469 -10.746094 "/></g></g></g><g fill="#004aad" fill-opacity="1"><g transform="translate(428.229835, 285.858262)"><g><path d="M 7.0625 0 L 15.351562 0 L 15.351562 -14.738281 L 21.554688 -14.738281 L 21.554688 -21.492188 L 0.921875 -21.492188 L 0.921875 -14.738281 L 7.0625 -14.738281 Z M 7.0625 0 "/></g></g></g><g fill="#004aad" fill-opacity="1"><g transform="translate(450.704485, 285.858262)"><g><path d="M 1.535156 0 L 9.824219 0 L 9.824219 -21.492188 L 1.535156 -21.492188 Z M 1.535156 0 "/></g></g></g><g fill="#004aad" fill-opacity="1"><g transform="translate(462.05301, 285.858262)"><g/></g></g></svg>